<svg width="9" height="7" viewBox="0 0 9 7" fill="none" xmlns="http://www.w3.org/2000/svg">
<path d="M4.00889 6.74155C3.96829 6.702 3.79469 6.55265 3.65189 6.41354C2.75379 5.59795 1.28379 3.47034 0.835086 2.35675C0.762986 2.18763 0.610386 1.76006 0.600586 1.53161C0.600586 1.31271 0.650986 1.10404 0.753186 0.90492C0.895986 0.656698 1.12069 0.457574 1.38599 0.348466C1.57009 0.278227 2.12099 0.169118 2.13079 0.169118C2.73349 0.0600097 3.71279 0 4.79499 0C5.82609 0 6.76549 0.0600097 7.37729 0.149342C7.38709 0.159571 8.07169 0.26868 8.30619 0.388018C8.73459 0.606917 9.00059 1.03449 9.00059 1.49206V1.53161C8.99009 1.82962 8.72409 2.45631 8.71429 2.45631C8.26489 3.50989 6.86699 5.58841 5.93809 6.42377C5.93809 6.42377 5.69939 6.65904 5.55029 6.76132C5.33609 6.9209 5.07079 7 4.80549 7C4.50939 7 4.23359 6.91067 4.00889 6.74155Z" fill="#8F8F8F"/>
</svg>
