<svg width="23" height="27" viewBox="0 0 23 27" fill="none" xmlns="http://www.w3.org/2000/svg">
<g clip-path="url(#clip0_411_292)">
<path d="M9.68898 26.9999C8.33071 26.3863 6.88189 25.8603 5.79528 24.9837C3.5315 23.1428 2.80709 20.6882 3.62205 17.883C4.43701 15.0778 6.42914 13.3246 9.41732 12.7986C9.96063 12.7109 10.5945 12.6233 11.2283 12.6233C12.9488 12.6233 12.9488 12.6233 13.2205 10.87C12.9488 10.7824 12.5866 10.607 12.2244 10.5194C9.23622 9.46743 6.79134 7.62653 5.25197 4.82133C4.61811 3.68172 4.98032 3.06808 6.33858 3.24341C7.69685 3.41873 8.96457 3.76938 10.2323 4.03237C10.1417 3.15575 9.87008 2.19146 9.87008 1.13951C9.77953 0.0875643 10.3228 -0.263085 11.3189 0.262889C14.2165 1.66549 16.1181 3.94471 17.2047 6.83756C17.4764 7.53886 17.748 8.06484 18.7441 8.24016C21.5512 8.94146 23.4528 12.2726 22.8189 15.0778C22.7283 15.4285 22.2756 15.6915 21.9134 15.8668C21.6417 16.0421 21.189 15.8668 20.8268 15.8668C18.9252 15.8668 17.9291 16.7434 17.9291 18.672C17.9291 19.7239 17.9291 20.8635 17.9291 21.9155C17.9291 22.0031 17.8386 22.0031 17.8386 22.1785C16.4803 22.1785 15.0315 22.1785 13.8543 22.1785C13.8543 21.3018 13.8543 20.4252 13.6732 19.5486C13.4016 18.409 12.0433 17.4447 10.9567 17.5324C10.5945 17.5324 10.2323 17.883 9.96063 18.146C10.2323 18.4967 10.4134 19.0226 10.685 19.0226C11.6811 19.198 12.315 19.6363 12.315 20.6006C12.315 21.5648 11.6811 22.0908 10.685 22.2661C10.4134 22.3538 10.1417 22.7921 9.96063 23.1428C10.3228 23.4057 10.5945 23.7564 10.9567 23.7564C12.9488 23.8441 14.9409 23.7564 16.9331 23.7564C18.1102 23.7564 19.0157 24.107 19.4685 25.159C19.7402 25.7726 19.8307 26.3863 19.1969 26.9122C15.937 26.9999 12.7677 26.9999 9.68898 26.9999Z" fill="#8F8F8F"/>
<path d="M3.35039 25.2466C2.17322 25.4219 0.905505 24.7206 0.271646 23.4057C-0.362212 22.0031 0.090544 20.6881 1.26771 19.8115C1.99212 21.6524 2.62598 23.4933 3.35039 25.2466Z" fill="#8F8F8F"/>
</g>
<defs>
<clipPath id="clip0_411_292">
<rect width="23" height="27" fill="white"/>
</clipPath>
</defs>
</svg>
